<svg xmlns="http://www.w3.org/2000/svg" width="400" height="400" viewBox="0 0 400 400">
  <rect width="400" height="400" fill="#2a2a28"/>

  <!-- ========== WHIPLASH CURVES (coup de fouet) ========== -->
  <!-- Primary whiplash — the signature Art Nouveau S-curve -->
  <path d="M0 200 C30 180, 60 120, 100 140 S160 220, 200 200 S280 120, 320 160 S380 220, 400 200"
        stroke="rgba(201,162,39,0.22)" stroke-width="2" fill="none"/>
  <path d="M0 200 C30 220, 60 280, 100 260 S160 180, 200 200 S280 280, 320 240 S380 180, 400 200"
        stroke="rgba(201,162,39,0.18)" stroke-width="1.5" fill="none"/>
  <!-- Mirror whiplash offset -->
  <path d="M0 100 C40 80, 80 30, 120 50 S180 130, 220 100 S300 30, 340 60 S390 120, 400 100"
        stroke="rgba(138,154,91,0.20)" stroke-width="1.5" fill="none"/>
  <path d="M0 300 C40 320, 80 370, 120 350 S180 270, 220 300 S300 370, 340 340 S390 280, 400 300"
        stroke="rgba(138,154,91,0.20)" stroke-width="1.5" fill="none"/>

  <!-- ========== LILY / WISTERIA STEMS ========== -->
  <!-- Central ascending vine -->
  <path d="M200 400 C195 360, 180 320, 190 280 S220 240, 210 200 S180 160, 195 120 S215 80, 200 40 C198 20, 202 10, 200 0"
        stroke="rgba(107,122,69,0.28)" stroke-width="2.5" fill="none" stroke-linecap="round"/>
  <!-- Left vine -->
  <path d="M80 400 C75 360, 60 330, 70 290 S100 250, 85 210 S55 170, 72 130 S95 90, 80 50 C78 25, 82 10, 80 0"
        stroke="rgba(107,122,69,0.22)" stroke-width="2" fill="none" stroke-linecap="round"/>
  <!-- Right vine -->
  <path d="M320 400 C325 360, 340 330, 330 290 S300 250, 315 210 S345 170, 328 130 S305 90, 320 50 C322 25, 318 10, 320 0"
        stroke="rgba(107,122,69,0.22)" stroke-width="2" fill="none" stroke-linecap="round"/>

  <!-- ========== LILY FLOWERS on central vine ========== -->
  <!-- Lily at y=280 -->
  <path d="M190 280 C175 265, 165 255, 160 240" stroke="rgba(212,168,152,0.30)" stroke-width="1.5" fill="none"/>
  <path d="M190 280 C205 265, 215 255, 220 240" stroke="rgba(212,168,152,0.30)" stroke-width="1.5" fill="none"/>
  <path d="M160 240 C155 230, 158 222, 165 218 C170 225, 175 235, 190 280Z" fill="rgba(212,168,152,0.20)"/>
  <path d="M220 240 C225 230, 222 222, 215 218 C210 225, 205 235, 190 280Z" fill="rgba(212,168,152,0.20)"/>
  <path d="M190 280 C185 268, 182 258, 185 245 C188 255, 192 268, 190 280Z" fill="rgba(232,223,208,0.18)"/>
  <circle cx="190" cy="242" r="2.5" fill="rgba(201,162,39,0.35)"/>

  <!-- Lily at y=120 -->
  <path d="M195 120 C180 105, 170 95, 165 80" stroke="rgba(212,168,152,0.28)" stroke-width="1.5" fill="none"/>
  <path d="M195 120 C210 105, 220 95, 225 80" stroke="rgba(212,168,152,0.28)" stroke-width="1.5" fill="none"/>
  <path d="M165 80 C160 70, 163 62, 170 58 C175 65, 180 75, 195 120Z" fill="rgba(212,168,152,0.18)"/>
  <path d="M225 80 C230 70, 227 62, 220 58 C215 65, 210 75, 195 120Z" fill="rgba(212,168,152,0.18)"/>
  <circle cx="195" cy="82" r="2" fill="rgba(201,162,39,0.30)"/>

  <!-- ========== WISTERIA CLUSTERS (hanging teardrop shapes) ========== -->
  <!-- Left vine wisteria at y=210 -->
  <ellipse cx="78" cy="215" rx="6" ry="10" fill="rgba(148,100,130,0.18)" transform="rotate(-10 78 215)"/>
  <ellipse cx="82" cy="228" rx="5" ry="8" fill="rgba(148,100,130,0.15)" transform="rotate(5 82 228)"/>
  <ellipse cx="76" cy="238" rx="4" ry="6" fill="rgba(148,100,130,0.12)"/>
  <!-- Right vine wisteria at y=210 -->
  <ellipse cx="322" cy="215" rx="6" ry="10" fill="rgba(148,100,130,0.18)" transform="rotate(10 322 215)"/>
  <ellipse cx="318" cy="228" rx="5" ry="8" fill="rgba(148,100,130,0.15)" transform="rotate(-5 318 228)"/>
  <ellipse cx="324" cy="238" rx="4" ry="6" fill="rgba(148,100,130,0.12)"/>

  <!-- ========== LEAVES (asymmetric, Art Nouveau style) ========== -->
  <!-- Central vine leaves -->
  <path d="M210 200 C225 190, 240 185, 245 195 C235 198, 220 200, 210 200Z" fill="rgba(138,154,91,0.25)"/>
  <path d="M190 200 C175 190, 160 185, 155 195 C165 198, 180 200, 190 200Z" fill="rgba(138,154,91,0.22)"/>
  <path d="M205 160 C220 148, 235 145, 238 155 C228 158, 215 158, 205 160Z" fill="rgba(107,122,69,0.22)"/>
  <path d="M195 160 C180 148, 165 145, 162 155 C172 158, 185 158, 195 160Z" fill="rgba(107,122,69,0.20)"/>
  <path d="M215 240 C232 232, 248 230, 250 240 C238 242, 225 240, 215 240Z" fill="rgba(138,154,91,0.22)"/>
  <path d="M185 320 C168 312, 152 310, 150 320 C162 322, 175 320, 185 320Z" fill="rgba(138,154,91,0.20)"/>
  <!-- Left vine leaves -->
  <path d="M70 290 C55 280, 42 278, 40 288 C50 290, 62 290, 70 290Z" fill="rgba(138,154,91,0.20)"/>
  <path d="M85 250 C100 240, 112 238, 114 248 C104 250, 92 250, 85 250Z" fill="rgba(107,122,69,0.18)"/>
  <path d="M72 130 C57 120, 44 118, 42 128 C52 130, 64 130, 72 130Z" fill="rgba(138,154,91,0.20)"/>
  <!-- Right vine leaves -->
  <path d="M330 290 C345 280, 358 278, 360 288 C350 290, 338 290, 330 290Z" fill="rgba(138,154,91,0.20)"/>
  <path d="M315 250 C300 240, 288 238, 286 248 C296 250, 308 250, 315 250Z" fill="rgba(107,122,69,0.18)"/>
  <path d="M328 130 C343 120, 356 118, 358 128 C348 130, 336 130, 328 130Z" fill="rgba(138,154,91,0.20)"/>

  <!-- ========== DRAGONFLY (Japanese-inspired) ========== -->
  <!-- Body -->
  <path d="M290 80 C292 75, 295 65, 293 55" stroke="rgba(201,162,39,0.25)" stroke-width="1.5" fill="none"/>
  <!-- Wings -->
  <path d="M290 80 C275 70, 268 60, 272 55 C278 58, 285 68, 290 80Z" fill="rgba(232,223,208,0.12)" stroke="rgba(201,162,39,0.18)" stroke-width="0.5"/>
  <path d="M290 80 C305 70, 312 60, 308 55 C302 58, 295 68, 290 80Z" fill="rgba(232,223,208,0.12)" stroke="rgba(201,162,39,0.18)" stroke-width="0.5"/>
  <path d="M290 80 C278 74, 270 68, 274 62 C280 65, 286 72, 290 80Z" fill="rgba(232,223,208,0.08)" stroke="rgba(201,162,39,0.14)" stroke-width="0.5"/>
  <path d="M290 80 C302 74, 310 68, 306 62 C300 65, 294 72, 290 80Z" fill="rgba(232,223,208,0.08)" stroke="rgba(201,162,39,0.14)" stroke-width="0.5"/>
  <circle cx="293" cy="53" r="2" fill="rgba(201,162,39,0.22)"/>

  <!-- ========== BUTTERFLY (opposite side) ========== -->
  <path d="M110 340 C95 325, 88 310, 95 305 C102 312, 108 325, 110 340Z" fill="rgba(148,100,130,0.16)" stroke="rgba(201,162,39,0.15)" stroke-width="0.5"/>
  <path d="M110 340 C125 325, 132 310, 125 305 C118 312, 112 325, 110 340Z" fill="rgba(148,100,130,0.16)" stroke="rgba(201,162,39,0.15)" stroke-width="0.5"/>
  <path d="M110 340 C100 332, 94 320, 98 316 C104 320, 108 330, 110 340Z" fill="rgba(212,168,152,0.12)" stroke="rgba(201,162,39,0.12)" stroke-width="0.5"/>
  <path d="M110 340 C120 332, 126 320, 122 316 C116 320, 112 330, 110 340Z" fill="rgba(212,168,152,0.12)" stroke="rgba(201,162,39,0.12)" stroke-width="0.5"/>
  <path d="M110 340 C110 345, 109 352, 108 358" stroke="rgba(201,162,39,0.18)" stroke-width="0.8" fill="none"/>

  <!-- ========== PEACOCK FEATHER EYES (scattered) ========== -->
  <circle cx="50" cy="60" r="8" fill="none" stroke="rgba(138,154,91,0.18)" stroke-width="1.5"/>
  <circle cx="50" cy="60" r="4" fill="rgba(107,122,69,0.15)"/>
  <circle cx="50" cy="60" r="2" fill="rgba(201,162,39,0.25)"/>

  <circle cx="350" cy="360" r="8" fill="none" stroke="rgba(138,154,91,0.18)" stroke-width="1.5"/>
  <circle cx="350" cy="360" r="4" fill="rgba(107,122,69,0.15)"/>
  <circle cx="350" cy="360" r="2" fill="rgba(201,162,39,0.25)"/>

  <circle cx="140" cy="50" r="6" fill="none" stroke="rgba(212,168,152,0.15)" stroke-width="1"/>
  <circle cx="140" cy="50" r="3" fill="rgba(212,168,152,0.12)"/>
  <circle cx="140" cy="50" r="1.5" fill="rgba(201,162,39,0.20)"/>

  <circle cx="260" cy="370" r="6" fill="none" stroke="rgba(212,168,152,0.15)" stroke-width="1"/>
  <circle cx="260" cy="370" r="3" fill="rgba(212,168,152,0.12)"/>
  <circle cx="260" cy="370" r="1.5" fill="rgba(201,162,39,0.20)"/>

  <!-- ========== GOLD ACCENT DOTS (scattered like Klimt) ========== -->
  <circle cx="30" cy="150" r="2" fill="rgba(201,162,39,0.25)"/>
  <circle cx="370" cy="150" r="2" fill="rgba(201,162,39,0.25)"/>
  <circle cx="150" cy="180" r="1.5" fill="rgba(201,162,39,0.20)"/>
  <circle cx="250" cy="180" r="1.5" fill="rgba(201,162,39,0.20)"/>
  <circle cx="100" cy="100" r="1.5" fill="rgba(219,184,77,0.22)"/>
  <circle cx="300" cy="300" r="1.5" fill="rgba(219,184,77,0.22)"/>
  <circle cx="180" cy="350" r="1.5" fill="rgba(201,162,39,0.18)"/>
  <circle cx="220" cy="50" r="1.5" fill="rgba(201,162,39,0.18)"/>
  <circle cx="40" cy="340" r="1" fill="rgba(219,184,77,0.18)"/>
  <circle cx="360" cy="60" r="1" fill="rgba(219,184,77,0.18)"/>
  <circle cx="160" cy="260" r="1.5" fill="rgba(201,162,39,0.16)"/>
  <circle cx="240" cy="140" r="1.5" fill="rgba(201,162,39,0.16)"/>

  <!-- ========== CURVING TENDRILS (whiplash details) ========== -->
  <path d="M200 200 C230 185, 250 170, 260 175 C255 180, 235 190, 200 200" stroke="rgba(201,162,39,0.15)" stroke-width="0.8" fill="none"/>
  <path d="M200 200 C170 215, 150 230, 140 225 C145 220, 165 210, 200 200" stroke="rgba(201,162,39,0.15)" stroke-width="0.8" fill="none"/>
  <path d="M80 50 C90 40, 100 35, 105 42 C98 45, 88 48, 80 50" stroke="rgba(138,154,91,0.15)" stroke-width="0.8" fill="none"/>
  <path d="M320 350 C310 360, 300 365, 295 358 C302 355, 312 352, 320 350" stroke="rgba(138,154,91,0.15)" stroke-width="0.8" fill="none"/>

  <!-- ========== IRIS / LILY BUD SHAPES ========== -->
  <path d="M50 200 C45 185, 48 172, 55 168 C52 178, 52 188, 55 200 C52 200, 50 200, 50 200Z" fill="rgba(148,100,130,0.15)"/>
  <path d="M350 200 C355 185, 352 172, 345 168 C348 178, 348 188, 345 200 C348 200, 350 200, 350 200Z" fill="rgba(148,100,130,0.15)"/>
</svg>
